<svg width="500" height="500" viewBox="0 0 500 500" fill="none" xmlns="http://www.w3.org/2000/svg">
<path d="M358.222 203.782C290.037 236.428 175.569 318.25 175.569 318.25C175.569 318.25 207.802 335.193 245.82 346.764C286.731 358.748 324.336 365.36 343.346 360.814C387.149 350.896 433.433 256.677 448.723 214.939C448.723 214.939 384.257 242.627 364.008 251.718C346.238 259.983 279.293 292.629 279.293 292.629L385.083 260.396C383.017 264.942 355.33 327.341 319.791 334.78C283.012 342.218 217.306 316.184 217.306 316.184C222.679 312.051 324.337 243.866 452.855 194.69C458.227 192.624 466.079 179.4 466.079 172.375C465.666 172.375 408.638 177.747 358.222 203.782Z" fill="#F51928"/>
<path d="M197.058 278.579C228.051 255.437 340.453 161.218 447.483 135.596C447.483 135.596 391.282 126.505 310.7 151.713C282.186 160.804 240.035 200.889 162.759 276.512C152.427 282.298 114.409 260.809 92.9204 250.478C92.9204 250.478 128.873 307.506 141.683 324.449C161.106 350.896 196.645 366.186 196.645 366.186C196.645 366.186 173.09 341.805 161.519 322.383C156.973 314.944 162.759 304.2 197.058 278.579Z" fill="#F51928"/>
<path d="M33 236.841C33 236.841 50.7695 283.124 62.3403 290.149C73.9111 297.174 90.4408 305.853 123.5 314.117C123.5 314.117 102.012 297.174 79.6965 278.165C56.9681 258.743 33 236.841 33 236.841Z" fill="#F51928"/>
</svg>
